<svg version="1.1" xmlns="http://www.w3.org/2000/svg" viewBox="0 0 249.1453628540039 67" width="249.1453628540039" height="67">
  <!-- svg-source:excalidraw -->
  
  <defs>
    <style class="style-fonts">
      @font-face {
        font-family: "Virgil";
        src: url("https://excalidraw.com/Virgil.woff2");
      }
      @font-face {
        font-family: "Cascadia";
        src: url("https://excalidraw.com/Cascadia.woff2");
      }
    </style>
    
  </defs>
  <g stroke-linecap="round" transform="translate(10 10) rotate(0 46 23.5)"><path d="M1.9 4.3 C1.9 4.3, 1.9 4.3, 1.9 4.3 M1.9 4.3 C1.9 4.3, 1.9 4.3, 1.9 4.3 M1.64 10.7 C3.1 9, 3.67 8.07, 7.54 3.91 M1.64 10.7 C2.89 9.13, 4.76 7.54, 7.54 3.91 M2.03 16.34 C6.25 14.02, 7.67 8.21, 14.5 2 M2.03 16.34 C7.15 10.83, 12.39 5.74, 14.5 2 M1.77 22.74 C9.64 16.6, 16.71 8.06, 19.49 2.36 M1.77 22.74 C7.45 16.49, 13.13 11.69, 19.49 2.36 M2.17 28.38 C12.34 17.81, 20.09 7.55, 25.13 1.97 M2.17 28.38 C7.08 23.03, 13 14.8, 25.13 1.97 M1.91 34.78 C8.88 25.83, 16.49 17.9, 30.12 2.33 M1.91 34.78 C10.07 25.95, 17.39 16.74, 30.12 2.33 M2.3 40.43 C12.15 30.68, 23.45 17.2, 35.76 1.94 M2.3 40.43 C13.92 26.49, 25.62 13.15, 35.76 1.94 M4.01 44.56 C17.81 29.68, 29.9 15.3, 40.75 2.3 M4.01 44.56 C13.69 33.44, 24.91 22.35, 40.75 2.3 M7.03 47.18 C20.69 34.11, 30.35 20.59, 46.39 1.9 M7.03 47.18 C21.95 30.81, 35.82 13.9, 46.39 1.9 M12.01 47.54 C24.37 33.3, 34.82 22.48, 51.38 2.26 M12.01 47.54 C25.98 31.27, 39.4 16.17, 51.38 2.26 M17.66 47.15 C24.25 38.06, 34.73 25.86, 57.02 1.87 M17.66 47.15 C29.56 32.7, 42.13 19.77, 57.02 1.87 M22.64 47.51 C33.3 31.42, 49.02 19.89, 62.01 2.23 M22.64 47.51 C34.32 35.87, 43.62 21.95, 62.01 2.23 M28.29 47.11 C41.97 29.04, 56.41 13.28, 66.99 2.59 M28.29 47.11 C37.83 34.94, 48.86 22.82, 66.99 2.59 M33.27 47.47 C46.38 30.91, 63.87 14.38, 72.64 2.19 M33.27 47.47 C45.65 34.77, 56.7 21.32, 72.64 2.19 M38.92 47.08 C48.15 37.25, 55.33 27.58, 77.62 2.55 M38.92 47.08 C50.48 35.18, 60.81 21.13, 77.62 2.55 M43.9 47.44 C52.72 38.26, 60.32 26.27, 83.27 2.16 M43.9 47.44 C56.53 31.85, 70.15 19.21, 83.27 2.16 M49.55 47.05 C58.29 34.96, 71.96 21.57, 88.25 2.52 M49.55 47.05 C62.19 32.04, 74.58 19.21, 88.25 2.52 M54.53 47.41 C64.94 35.85, 72.94 22.76, 91.27 5.14 M54.53 47.41 C66.55 35.48, 77.05 22.56, 91.27 5.14 M60.18 47.01 C72.19 34.46, 83.02 20.82, 92.32 10.03 M60.18 47.01 C68.73 37.77, 75.99 29.96, 92.32 10.03 M65.16 47.37 C71.24 40.59, 79.33 29.71, 92.72 15.67 M65.16 47.37 C74.93 37.55, 82.72 26.53, 92.72 15.67 M70.15 47.73 C75.06 40.88, 81.09 32.71, 92.46 22.07 M70.15 47.73 C74.77 41.21, 80.75 35.45, 92.46 22.07 M75.79 47.34 C81.55 43.54, 84.48 39.24, 92.85 27.71 M75.79 47.34 C79.77 41.56, 85.3 36.41, 92.85 27.71 M80.78 47.7 C85.86 43.18, 89.33 37.22, 92.59 34.11 M80.78 47.7 C83.38 44.67, 86.97 41.02, 92.59 34.11" stroke="#f08c00" stroke-width="0.5" fill="none"></path><path d="M11.75 0 M11.75 0 C32.08 0.86, 48.29 -0.79, 80.25 0 M11.75 0 C33.91 -0.84, 58.34 -0.44, 80.25 0 M80.25 0 C88.49 0.67, 92.38 4.22, 92 11.75 M80.25 0 C86.08 -1.73, 93.79 3.28, 92 11.75 M92 11.75 C90.97 20.87, 92.36 30.07, 92 35.25 M92 11.75 C92.35 15.95, 91.96 22.77, 92 35.25 M92 35.25 C92.43 43.72, 88.12 48.76, 80.25 47 M92 35.25 C91.7 44.93, 88.13 48.95, 80.25 47 M80.25 47 C54.32 49.12, 31.11 45.93, 11.75 47 M80.25 47 C64.8 46.56, 49.74 47.54, 11.75 47 M11.75 47 C4.81 48.02, 0.87 44.47, 0 35.25 M11.75 47 C4.72 48.36, -0.91 41.79, 0 35.25 M0 35.25 C-0.92 27.52, 1.35 18.69, 0 11.75 M0 35.25 C-0.7 27.33, 0.08 18.41, 0 11.75 M0 11.75 C1.49 5.67, 2.1 1.55, 11.75 0 M0 11.75 C0.58 4.55, 4.97 -0.13, 11.75 0" stroke="#f08c00" stroke-width="1" fill="none"></path></g><g transform="translate(110.4383316040039 12.800000000000011) rotate(0 64.353515625 20.69999999999999)"><text x="128.70703125" y="0" font-family="Helvetica, Segoe UI Emoji" font-size="36px" fill="#1e1e1e" text-anchor="end" style="white-space: pre;" direction="ltr" dominant-baseline="text-before-edge">MyTube</text></g></svg>